<svg xmlns="http://www.w3.org/2000/svg" width="1000" height="430" viewBox="0 0 1000 430">
<rect width="100%" height="100%" fill="#f0f0f0"/>
<text x="500.0" y="34" text-anchor="middle" font-size="22" font-family="Microsoft YaHei, Arial">8PSK 离线日志恢复指标</text>
<rect x="80" y="86" width="390" height="250" fill="white" stroke="#333" stroke-width="1"/>
<text x="275.0" y="76.0" text-anchor="middle" font-size="16" fill="#222" font-family="Microsoft YaHei, Arial">EVM (%)</text>
<text x="34.0" y="211.0" text-anchor="middle" font-size="13" fill="#222" font-family="Microsoft YaHei, Arial">EVM (%)</text>
<line x1="145.0" y1="86" x2="145.0" y2="336" stroke="#d7d7d7"/>
<text x="145.0" y="358.0" text-anchor="middle" font-size="12" fill="#222" font-family="Microsoft YaHei, Arial">0</text>
<line x1="275.0" y1="86" x2="275.0" y2="336" stroke="#d7d7d7"/>
<text x="275.0" y="358.0" text-anchor="middle" font-size="12" fill="#222" font-family="Microsoft YaHei, Arial">1</text>
<line x1="405.0" y1="86" x2="405.0" y2="336" stroke="#d7d7d7"/>
<text x="405.0" y="358.0" text-anchor="middle" font-size="12" fill="#222" font-family="Microsoft YaHei, Arial">2</text>
<line x1="80" y1="336.0" x2="470" y2="336.0" stroke="#d7d7d7"/>
<text x="72.0" y="340.0" text-anchor="end" font-size="12" fill="#222" font-family="Microsoft YaHei, Arial">0</text>
<line x1="80" y1="257.8" x2="470" y2="257.8" stroke="#d7d7d7"/>
<text x="72.0" y="261.8" text-anchor="end" font-size="12" fill="#222" font-family="Microsoft YaHei, Arial">5</text>
<line x1="80" y1="179.7" x2="470" y2="179.7" stroke="#d7d7d7"/>
<text x="72.0" y="183.7" text-anchor="end" font-size="12" fill="#222" font-family="Microsoft YaHei, Arial">10</text>
<line x1="80" y1="101.5" x2="470" y2="101.5" stroke="#d7d7d7"/>
<text x="72.0" y="105.5" text-anchor="end" font-size="12" fill="#222" font-family="Microsoft YaHei, Arial">15</text>
<line x1="80" y1="23.4" x2="470" y2="23.4" stroke="#d7d7d7"/>
<text x="72.0" y="27.4" text-anchor="end" font-size="12" fill="#222" font-family="Microsoft YaHei, Arial">20</text>
<rect x="111.2" y="224.1" width="67.6" height="111.9" fill="#4f94d8"/>
<text x="145.0" y="216.1" text-anchor="middle" font-size="12" fill="#222" font-family="Microsoft YaHei, Arial">7.2</text>
<text x="145.0" y="374.0" text-anchor="middle" font-size="12" fill="#222" font-family="Microsoft YaHei, Arial">Clean</text>
<rect x="241.2" y="136.0" width="67.6" height="200.0" fill="#4f94d8"/>
<text x="275.0" y="128.0" text-anchor="middle" font-size="12" fill="#222" font-family="Microsoft YaHei, Arial">13</text>
<text x="275.0" y="374.0" text-anchor="middle" font-size="12" fill="#222" font-family="Microsoft YaHei, Arial">Damaged</text>
<rect x="371.2" y="220.9" width="67.6" height="115.1" fill="#4f94d8"/>
<text x="405.0" y="212.9" text-anchor="middle" font-size="12" fill="#222" font-family="Microsoft YaHei, Arial">7.4</text>
<text x="405.0" y="374.0" text-anchor="middle" font-size="12" fill="#222" font-family="Microsoft YaHei, Arial">Recovered</text>
<rect x="550" y="86" width="390" height="250" fill="white" stroke="#333" stroke-width="1"/>
<text x="745.0" y="76.0" text-anchor="middle" font-size="16" fill="#222" font-family="Microsoft YaHei, Arial">SNR_est (dB)</text>
<text x="504.0" y="211.0" text-anchor="middle" font-size="13" fill="#222" font-family="Microsoft YaHei, Arial">SNR_est (dB)</text>
<line x1="615.0" y1="86" x2="615.0" y2="336" stroke="#d7d7d7"/>
<text x="615.0" y="358.0" text-anchor="middle" font-size="12" fill="#222" font-family="Microsoft YaHei, Arial">0</text>
<line x1="745.0" y1="86" x2="745.0" y2="336" stroke="#d7d7d7"/>
<text x="745.0" y="358.0" text-anchor="middle" font-size="12" fill="#222" font-family="Microsoft YaHei, Arial">1</text>
<line x1="875.0" y1="86" x2="875.0" y2="336" stroke="#d7d7d7"/>
<text x="875.0" y="358.0" text-anchor="middle" font-size="12" fill="#222" font-family="Microsoft YaHei, Arial">2</text>
<line x1="550" y1="336.0" x2="940" y2="336.0" stroke="#d7d7d7"/>
<text x="542.0" y="340.0" text-anchor="end" font-size="12" fill="#222" font-family="Microsoft YaHei, Arial">0</text>
<line x1="550" y1="248.7" x2="940" y2="248.7" stroke="#d7d7d7"/>
<text x="542.0" y="252.7" text-anchor="end" font-size="12" fill="#222" font-family="Microsoft YaHei, Arial">10</text>
<line x1="550" y1="161.4" x2="940" y2="161.4" stroke="#d7d7d7"/>
<text x="542.0" y="165.4" text-anchor="end" font-size="12" fill="#222" font-family="Microsoft YaHei, Arial">20</text>
<line x1="550" y1="74.0" x2="940" y2="74.0" stroke="#d7d7d7"/>
<text x="542.0" y="78.0" text-anchor="end" font-size="12" fill="#222" font-family="Microsoft YaHei, Arial">30</text>
<rect x="581.2" y="136.0" width="67.6" height="200.0" fill="#35a269"/>
<text x="615.0" y="128.0" text-anchor="middle" font-size="12" fill="#222" font-family="Microsoft YaHei, Arial">23</text>
<text x="615.0" y="374.0" text-anchor="middle" font-size="12" fill="#222" font-family="Microsoft YaHei, Arial">Clean</text>
<rect x="711.2" y="180.1" width="67.6" height="155.9" fill="#35a269"/>
<text x="745.0" y="172.1" text-anchor="middle" font-size="12" fill="#222" font-family="Microsoft YaHei, Arial">18</text>
<text x="745.0" y="374.0" text-anchor="middle" font-size="12" fill="#222" font-family="Microsoft YaHei, Arial">Damaged</text>
<rect x="841.2" y="138.2" width="67.6" height="197.8" fill="#35a269"/>
<text x="875.0" y="130.2" text-anchor="middle" font-size="12" fill="#222" font-family="Microsoft YaHei, Arial">23</text>
<text x="875.0" y="374.0" text-anchor="middle" font-size="12" fill="#222" font-family="Microsoft YaHei, Arial">Recovered</text>
</svg>