<svg xmlns="http://www.w3.org/2000/svg" width="900" height="560" viewBox="0 0 900 560">
<rect width="100%" height="100%" fill="#f0f0f0"/>
<text x="450.0" y="34" text-anchor="middle" font-size="22" font-family="Microsoft YaHei, Arial">8PSK 编译码 BER 对比（离线日志）</text>
<rect x="90" y="95" width="680" height="340" fill="white" stroke="#333" stroke-width="1"/>
<text x="430.0" y="85.0" text-anchor="middle" font-size="16" fill="#222" font-family="Microsoft YaHei, Arial">BER vs SNR</text>
<text x="44.0" y="265.0" text-anchor="middle" font-size="13" fill="#222" font-family="Microsoft YaHei, Arial">BER</text>
<line x1="90.0" y1="95" x2="90.0" y2="435" stroke="#d7d7d7"/>
<text x="90.0" y="457.0" text-anchor="middle" font-size="12" fill="#222" font-family="Microsoft YaHei, Arial">0</text>
<line x1="302.5" y1="95" x2="302.5" y2="435" stroke="#d7d7d7"/>
<text x="302.5" y="457.0" text-anchor="middle" font-size="12" fill="#222" font-family="Microsoft YaHei, Arial">5</text>
<line x1="515.0" y1="95" x2="515.0" y2="435" stroke="#d7d7d7"/>
<text x="515.0" y="457.0" text-anchor="middle" font-size="12" fill="#222" font-family="Microsoft YaHei, Arial">10</text>
<line x1="727.5" y1="95" x2="727.5" y2="435" stroke="#d7d7d7"/>
<text x="727.5" y="457.0" text-anchor="middle" font-size="12" fill="#222" font-family="Microsoft YaHei, Arial">15</text>
<line x1="940.0" y1="95" x2="940.0" y2="435" stroke="#d7d7d7"/>
<text x="940.0" y="457.0" text-anchor="middle" font-size="12" fill="#222" font-family="Microsoft YaHei, Arial">20</text>
<line x1="90" y1="435.0" x2="770" y2="435.0" stroke="#d7d7d7"/>
<text x="82.0" y="439.0" text-anchor="end" font-size="12" fill="#222" font-family="Microsoft YaHei, Arial">1e-06</text>
<line x1="90" y1="378.3" x2="770" y2="378.3" stroke="#d7d7d7"/>
<text x="82.0" y="382.3" text-anchor="end" font-size="12" fill="#222" font-family="Microsoft YaHei, Arial">1e-05</text>
<line x1="90" y1="321.7" x2="770" y2="321.7" stroke="#d7d7d7"/>
<text x="82.0" y="325.7" text-anchor="end" font-size="12" fill="#222" font-family="Microsoft YaHei, Arial">0.0001</text>
<line x1="90" y1="265.0" x2="770" y2="265.0" stroke="#d7d7d7"/>
<text x="82.0" y="269.0" text-anchor="end" font-size="12" fill="#222" font-family="Microsoft YaHei, Arial">0.001</text>
<line x1="90" y1="208.3" x2="770" y2="208.3" stroke="#d7d7d7"/>
<text x="82.0" y="212.3" text-anchor="end" font-size="12" fill="#222" font-family="Microsoft YaHei, Arial">0.01</text>
<line x1="90" y1="151.7" x2="770" y2="151.7" stroke="#d7d7d7"/>
<text x="82.0" y="155.7" text-anchor="end" font-size="12" fill="#222" font-family="Microsoft YaHei, Arial">0.1</text>
<line x1="90" y1="95.0" x2="770" y2="95.0" stroke="#d7d7d7"/>
<text x="82.0" y="99.0" text-anchor="end" font-size="12" fill="#222" font-family="Microsoft YaHei, Arial">1</text>
<polyline points="90.0,112.1 175.0,112.1 260.0,112.1 345.0,277.7 430.0,338.2 515.0,435.0 600.0,435.0 685.0,435.0 770.0,435.0" fill="none" stroke="#1f77b4" stroke-width="2.4"/>
<circle cx="90.0" cy="112.1" r="4" fill="white" stroke="#1f77b4" stroke-width="2"/>
<circle cx="175.0" cy="112.1" r="4" fill="white" stroke="#1f77b4" stroke-width="2"/>
<circle cx="260.0" cy="112.1" r="4" fill="white" stroke="#1f77b4" stroke-width="2"/>
<circle cx="345.0" cy="277.7" r="4" fill="white" stroke="#1f77b4" stroke-width="2"/>
<circle cx="430.0" cy="338.2" r="4" fill="white" stroke="#1f77b4" stroke-width="2"/>
<circle cx="515.0" cy="435.0" r="4" fill="white" stroke="#1f77b4" stroke-width="2"/>
<circle cx="600.0" cy="435.0" r="4" fill="white" stroke="#1f77b4" stroke-width="2"/>
<circle cx="685.0" cy="435.0" r="4" fill="white" stroke="#1f77b4" stroke-width="2"/>
<circle cx="770.0" cy="435.0" r="4" fill="white" stroke="#1f77b4" stroke-width="2"/>
<line x1="652" y1="119" x2="680" y2="119" stroke="#1f77b4" stroke-width="2.4"/>
<text x="688.0" y="123.0" text-anchor="start" font-size="12" fill="#222" font-family="Microsoft YaHei, Arial">LDPC 1/2</text>
<polyline points="90.0,112.1 175.0,112.1 260.0,112.1 345.0,435.0 430.0,435.0 515.0,435.0 600.0,435.0 685.0,435.0 770.0,435.0" fill="none" stroke="#2ca02c" stroke-width="2.4"/>
<circle cx="90.0" cy="112.1" r="4" fill="white" stroke="#2ca02c" stroke-width="2"/>
<circle cx="175.0" cy="112.1" r="4" fill="white" stroke="#2ca02c" stroke-width="2"/>
<circle cx="260.0" cy="112.1" r="4" fill="white" stroke="#2ca02c" stroke-width="2"/>
<circle cx="345.0" cy="435.0" r="4" fill="white" stroke="#2ca02c" stroke-width="2"/>
<circle cx="430.0" cy="435.0" r="4" fill="white" stroke="#2ca02c" stroke-width="2"/>
<circle cx="515.0" cy="435.0" r="4" fill="white" stroke="#2ca02c" stroke-width="2"/>
<circle cx="600.0" cy="435.0" r="4" fill="white" stroke="#2ca02c" stroke-width="2"/>
<circle cx="685.0" cy="435.0" r="4" fill="white" stroke="#2ca02c" stroke-width="2"/>
<circle cx="770.0" cy="435.0" r="4" fill="white" stroke="#2ca02c" stroke-width="2"/>
<line x1="652" y1="141" x2="680" y2="141" stroke="#2ca02c" stroke-width="2.4"/>
<text x="688.0" y="145.0" text-anchor="start" font-size="12" fill="#222" font-family="Microsoft YaHei, Arial">RS</text>
<polyline points="90.0,112.1 175.0,112.1 260.0,435.0 345.0,435.0 430.0,112.1 515.0,435.0 600.0,435.0 685.0,435.0 770.0,435.0" fill="none" stroke="#d62728" stroke-width="2.4"/>
<circle cx="90.0" cy="112.1" r="4" fill="white" stroke="#d62728" stroke-width="2"/>
<circle cx="175.0" cy="112.1" r="4" fill="white" stroke="#d62728" stroke-width="2"/>
<circle cx="260.0" cy="435.0" r="4" fill="white" stroke="#d62728" stroke-width="2"/>
<circle cx="345.0" cy="435.0" r="4" fill="white" stroke="#d62728" stroke-width="2"/>
<circle cx="430.0" cy="112.1" r="4" fill="white" stroke="#d62728" stroke-width="2"/>
<circle cx="515.0" cy="435.0" r="4" fill="white" stroke="#d62728" stroke-width="2"/>
<circle cx="600.0" cy="435.0" r="4" fill="white" stroke="#d62728" stroke-width="2"/>
<circle cx="685.0" cy="435.0" r="4" fill="white" stroke="#d62728" stroke-width="2"/>
<circle cx="770.0" cy="435.0" r="4" fill="white" stroke="#d62728" stroke-width="2"/>
<line x1="652" y1="163" x2="680" y2="163" stroke="#d62728" stroke-width="2.4"/>
<text x="688.0" y="167.0" text-anchor="start" font-size="12" fill="#222" font-family="Microsoft YaHei, Arial">卷积码 1/2</text>
<polyline points="90.0,112.1 175.0,112.1 260.0,179.8 345.0,187.2 430.0,350.6 515.0,435.0 600.0,435.0 685.0,435.0 770.0,435.0" fill="none" stroke="#9467bd" stroke-width="2.4"/>
<circle cx="90.0" cy="112.1" r="4" fill="white" stroke="#9467bd" stroke-width="2"/>
<circle cx="175.0" cy="112.1" r="4" fill="white" stroke="#9467bd" stroke-width="2"/>
<circle cx="260.0" cy="179.8" r="4" fill="white" stroke="#9467bd" stroke-width="2"/>
<circle cx="345.0" cy="187.2" r="4" fill="white" stroke="#9467bd" stroke-width="2"/>
<circle cx="430.0" cy="350.6" r="4" fill="white" stroke="#9467bd" stroke-width="2"/>
<circle cx="515.0" cy="435.0" r="4" fill="white" stroke="#9467bd" stroke-width="2"/>
<circle cx="600.0" cy="435.0" r="4" fill="white" stroke="#9467bd" stroke-width="2"/>
<circle cx="685.0" cy="435.0" r="4" fill="white" stroke="#9467bd" stroke-width="2"/>
<circle cx="770.0" cy="435.0" r="4" fill="white" stroke="#9467bd" stroke-width="2"/>
<line x1="652" y1="185" x2="680" y2="185" stroke="#9467bd" stroke-width="2.4"/>
<text x="688.0" y="189.0" text-anchor="start" font-size="12" fill="#222" font-family="Microsoft YaHei, Arial">无编码</text>
</svg>