<svg xmlns="http://www.w3.org/2000/svg" width="1500" height="500" viewBox="0 0 1500 500">
<rect width="100%" height="100%" fill="#f0f0f0"/>
<text x="750.0" y="34" text-anchor="middle" font-size="22" font-family="Microsoft YaHei, Arial">8PSK 离线日志 SNR 扫描</text>
<rect x="70" y="90" width="390" height="300" fill="white" stroke="#333" stroke-width="1"/>
<text x="265.0" y="80.0" text-anchor="middle" font-size="16" fill="#222" font-family="Microsoft YaHei, Arial">BER vs SNR</text>
<text x="24.0" y="240.0" text-anchor="middle" font-size="13" fill="#222" font-family="Microsoft YaHei, Arial">BER</text>
<line x1="70.0" y1="90" x2="70.0" y2="390" stroke="#d7d7d7"/>
<text x="70.0" y="412.0" text-anchor="middle" font-size="12" fill="#222" font-family="Microsoft YaHei, Arial">0</text>
<line x1="125.7" y1="90" x2="125.7" y2="390" stroke="#d7d7d7"/>
<text x="125.7" y="412.0" text-anchor="middle" font-size="12" fill="#222" font-family="Microsoft YaHei, Arial">2</text>
<line x1="181.4" y1="90" x2="181.4" y2="390" stroke="#d7d7d7"/>
<text x="181.4" y="412.0" text-anchor="middle" font-size="12" fill="#222" font-family="Microsoft YaHei, Arial">4</text>
<line x1="237.1" y1="90" x2="237.1" y2="390" stroke="#d7d7d7"/>
<text x="237.1" y="412.0" text-anchor="middle" font-size="12" fill="#222" font-family="Microsoft YaHei, Arial">6</text>
<line x1="292.9" y1="90" x2="292.9" y2="390" stroke="#d7d7d7"/>
<text x="292.9" y="412.0" text-anchor="middle" font-size="12" fill="#222" font-family="Microsoft YaHei, Arial">8</text>
<line x1="348.6" y1="90" x2="348.6" y2="390" stroke="#d7d7d7"/>
<text x="348.6" y="412.0" text-anchor="middle" font-size="12" fill="#222" font-family="Microsoft YaHei, Arial">10</text>
<line x1="404.3" y1="90" x2="404.3" y2="390" stroke="#d7d7d7"/>
<text x="404.3" y="412.0" text-anchor="middle" font-size="12" fill="#222" font-family="Microsoft YaHei, Arial">12</text>
<line x1="460.0" y1="90" x2="460.0" y2="390" stroke="#d7d7d7"/>
<text x="460.0" y="412.0" text-anchor="middle" font-size="12" fill="#222" font-family="Microsoft YaHei, Arial">14</text>
<line x1="70" y1="390.0" x2="460" y2="390.0" stroke="#d7d7d7"/>
<text x="62.0" y="394.0" text-anchor="end" font-size="12" fill="#222" font-family="Microsoft YaHei, Arial">1e-06</text>
<line x1="70" y1="340.0" x2="460" y2="340.0" stroke="#d7d7d7"/>
<text x="62.0" y="344.0" text-anchor="end" font-size="12" fill="#222" font-family="Microsoft YaHei, Arial">1e-05</text>
<line x1="70" y1="290.0" x2="460" y2="290.0" stroke="#d7d7d7"/>
<text x="62.0" y="294.0" text-anchor="end" font-size="12" fill="#222" font-family="Microsoft YaHei, Arial">0.0001</text>
<line x1="70" y1="240.0" x2="460" y2="240.0" stroke="#d7d7d7"/>
<text x="62.0" y="244.0" text-anchor="end" font-size="12" fill="#222" font-family="Microsoft YaHei, Arial">0.001</text>
<line x1="70" y1="190.0" x2="460" y2="190.0" stroke="#d7d7d7"/>
<text x="62.0" y="194.0" text-anchor="end" font-size="12" fill="#222" font-family="Microsoft YaHei, Arial">0.01</text>
<line x1="70" y1="140.0" x2="460" y2="140.0" stroke="#d7d7d7"/>
<text x="62.0" y="144.0" text-anchor="end" font-size="12" fill="#222" font-family="Microsoft YaHei, Arial">0.1</text>
<line x1="70" y1="90.0" x2="460" y2="90.0" stroke="#d7d7d7"/>
<text x="62.0" y="94.0" text-anchor="end" font-size="12" fill="#222" font-family="Microsoft YaHei, Arial">1</text>
<polyline points="70.0,105.1 125.7,105.1 181.4,390.0 237.1,390.0 292.9,390.0 348.6,390.0 404.3,390.0 460.0,390.0" fill="none" stroke="#1f77b4" stroke-width="2.4"/>
<circle cx="70.0" cy="105.1" r="4" fill="white" stroke="#1f77b4" stroke-width="2"/>
<circle cx="125.7" cy="105.1" r="4" fill="white" stroke="#1f77b4" stroke-width="2"/>
<circle cx="181.4" cy="390.0" r="4" fill="white" stroke="#1f77b4" stroke-width="2"/>
<circle cx="237.1" cy="390.0" r="4" fill="white" stroke="#1f77b4" stroke-width="2"/>
<circle cx="292.9" cy="390.0" r="4" fill="white" stroke="#1f77b4" stroke-width="2"/>
<circle cx="348.6" cy="390.0" r="4" fill="white" stroke="#1f77b4" stroke-width="2"/>
<circle cx="404.3" cy="390.0" r="4" fill="white" stroke="#1f77b4" stroke-width="2"/>
<circle cx="460.0" cy="390.0" r="4" fill="white" stroke="#1f77b4" stroke-width="2"/>
<line x1="342" y1="114" x2="370" y2="114" stroke="#1f77b4" stroke-width="2.4"/>
<text x="378.0" y="118.0" text-anchor="start" font-size="12" fill="#222" font-family="Microsoft YaHei, Arial">Clean</text>
<polyline points="70.0,105.1 125.7,105.1 181.4,390.0 237.1,390.0 292.9,390.0 348.6,390.0 404.3,390.0 460.0,390.0" fill="none" stroke="#2ca02c" stroke-width="2.4"/>
<circle cx="70.0" cy="105.1" r="4" fill="white" stroke="#2ca02c" stroke-width="2"/>
<circle cx="125.7" cy="105.1" r="4" fill="white" stroke="#2ca02c" stroke-width="2"/>
<circle cx="181.4" cy="390.0" r="4" fill="white" stroke="#2ca02c" stroke-width="2"/>
<circle cx="237.1" cy="390.0" r="4" fill="white" stroke="#2ca02c" stroke-width="2"/>
<circle cx="292.9" cy="390.0" r="4" fill="white" stroke="#2ca02c" stroke-width="2"/>
<circle cx="348.6" cy="390.0" r="4" fill="white" stroke="#2ca02c" stroke-width="2"/>
<circle cx="404.3" cy="390.0" r="4" fill="white" stroke="#2ca02c" stroke-width="2"/>
<circle cx="460.0" cy="390.0" r="4" fill="white" stroke="#2ca02c" stroke-width="2"/>
<line x1="342" y1="136" x2="370" y2="136" stroke="#2ca02c" stroke-width="2.4"/>
<text x="378.0" y="140.0" text-anchor="start" font-size="12" fill="#222" font-family="Microsoft YaHei, Arial">Recovered</text>
<rect x="550" y="90" width="390" height="300" fill="white" stroke="#333" stroke-width="1"/>
<text x="745.0" y="80.0" text-anchor="middle" font-size="16" fill="#222" font-family="Microsoft YaHei, Arial">EVM vs SNR</text>
<text x="504.0" y="240.0" text-anchor="middle" font-size="13" fill="#222" font-family="Microsoft YaHei, Arial">EVM (%)</text>
<line x1="550.0" y1="90" x2="550.0" y2="390" stroke="#d7d7d7"/>
<text x="550.0" y="412.0" text-anchor="middle" font-size="12" fill="#222" font-family="Microsoft YaHei, Arial">0</text>
<line x1="605.7" y1="90" x2="605.7" y2="390" stroke="#d7d7d7"/>
<text x="605.7" y="412.0" text-anchor="middle" font-size="12" fill="#222" font-family="Microsoft YaHei, Arial">2</text>
<line x1="661.4" y1="90" x2="661.4" y2="390" stroke="#d7d7d7"/>
<text x="661.4" y="412.0" text-anchor="middle" font-size="12" fill="#222" font-family="Microsoft YaHei, Arial">4</text>
<line x1="717.1" y1="90" x2="717.1" y2="390" stroke="#d7d7d7"/>
<text x="717.1" y="412.0" text-anchor="middle" font-size="12" fill="#222" font-family="Microsoft YaHei, Arial">6</text>
<line x1="772.9" y1="90" x2="772.9" y2="390" stroke="#d7d7d7"/>
<text x="772.9" y="412.0" text-anchor="middle" font-size="12" fill="#222" font-family="Microsoft YaHei, Arial">8</text>
<line x1="828.6" y1="90" x2="828.6" y2="390" stroke="#d7d7d7"/>
<text x="828.6" y="412.0" text-anchor="middle" font-size="12" fill="#222" font-family="Microsoft YaHei, Arial">10</text>
<line x1="884.3" y1="90" x2="884.3" y2="390" stroke="#d7d7d7"/>
<text x="884.3" y="412.0" text-anchor="middle" font-size="12" fill="#222" font-family="Microsoft YaHei, Arial">12</text>
<line x1="940.0" y1="90" x2="940.0" y2="390" stroke="#d7d7d7"/>
<text x="940.0" y="412.0" text-anchor="middle" font-size="12" fill="#222" font-family="Microsoft YaHei, Arial">14</text>
<line x1="550" y1="415.0" x2="940" y2="415.0" stroke="#d7d7d7"/>
<text x="542.0" y="419.0" text-anchor="end" font-size="12" fill="#222" font-family="Microsoft YaHei, Arial">0</text>
<line x1="550" y1="287.6" x2="940" y2="287.6" stroke="#d7d7d7"/>
<text x="542.0" y="291.6" text-anchor="end" font-size="12" fill="#222" font-family="Microsoft YaHei, Arial">20</text>
<line x1="550" y1="160.1" x2="940" y2="160.1" stroke="#d7d7d7"/>
<text x="542.0" y="164.1" text-anchor="end" font-size="12" fill="#222" font-family="Microsoft YaHei, Arial">40</text>
<line x1="550" y1="32.6" x2="940" y2="32.6" stroke="#d7d7d7"/>
<text x="542.0" y="36.6" text-anchor="end" font-size="12" fill="#222" font-family="Microsoft YaHei, Arial">60</text>
<polyline points="550.0,144.1 605.7,120.5 661.4,276.7 717.1,302.8 772.9,325.6 828.6,344.0 884.3,358.2 940.0,369.3" fill="none" stroke="#1f77b4" stroke-width="2.4"/>
<circle cx="550.0" cy="144.1" r="4" fill="white" stroke="#1f77b4" stroke-width="2"/>
<circle cx="605.7" cy="120.5" r="4" fill="white" stroke="#1f77b4" stroke-width="2"/>
<circle cx="661.4" cy="276.7" r="4" fill="white" stroke="#1f77b4" stroke-width="2"/>
<circle cx="717.1" cy="302.8" r="4" fill="white" stroke="#1f77b4" stroke-width="2"/>
<circle cx="772.9" cy="325.6" r="4" fill="white" stroke="#1f77b4" stroke-width="2"/>
<circle cx="828.6" cy="344.0" r="4" fill="white" stroke="#1f77b4" stroke-width="2"/>
<circle cx="884.3" cy="358.2" r="4" fill="white" stroke="#1f77b4" stroke-width="2"/>
<circle cx="940.0" cy="369.3" r="4" fill="white" stroke="#1f77b4" stroke-width="2"/>
<line x1="822" y1="114" x2="850" y2="114" stroke="#1f77b4" stroke-width="2.4"/>
<text x="858.0" y="118.0" text-anchor="start" font-size="12" fill="#222" font-family="Microsoft YaHei, Arial">Clean</text>
<polyline points="550.0,110.7 605.7,216.7 661.4,274.0 717.1,301.4 772.9,324.2 828.6,342.5 884.3,357.0 940.0,367.8" fill="none" stroke="#2ca02c" stroke-width="2.4"/>
<circle cx="550.0" cy="110.7" r="4" fill="white" stroke="#2ca02c" stroke-width="2"/>
<circle cx="605.7" cy="216.7" r="4" fill="white" stroke="#2ca02c" stroke-width="2"/>
<circle cx="661.4" cy="274.0" r="4" fill="white" stroke="#2ca02c" stroke-width="2"/>
<circle cx="717.1" cy="301.4" r="4" fill="white" stroke="#2ca02c" stroke-width="2"/>
<circle cx="772.9" cy="324.2" r="4" fill="white" stroke="#2ca02c" stroke-width="2"/>
<circle cx="828.6" cy="342.5" r="4" fill="white" stroke="#2ca02c" stroke-width="2"/>
<circle cx="884.3" cy="357.0" r="4" fill="white" stroke="#2ca02c" stroke-width="2"/>
<circle cx="940.0" cy="367.8" r="4" fill="white" stroke="#2ca02c" stroke-width="2"/>
<line x1="822" y1="136" x2="850" y2="136" stroke="#2ca02c" stroke-width="2.4"/>
<text x="858.0" y="140.0" text-anchor="start" font-size="12" fill="#222" font-family="Microsoft YaHei, Arial">Recovered</text>
<rect x="1030" y="90" width="390" height="300" fill="white" stroke="#333" stroke-width="1"/>
<text x="1225.0" y="80.0" text-anchor="middle" font-size="16" fill="#222" font-family="Microsoft YaHei, Arial">Frame Lock vs SNR</text>
<text x="984.0" y="240.0" text-anchor="middle" font-size="13" fill="#222" font-family="Microsoft YaHei, Arial">锁帧率 (%)</text>
<line x1="1030.0" y1="90" x2="1030.0" y2="390" stroke="#d7d7d7"/>
<text x="1030.0" y="412.0" text-anchor="middle" font-size="12" fill="#222" font-family="Microsoft YaHei, Arial">0</text>
<line x1="1085.7" y1="90" x2="1085.7" y2="390" stroke="#d7d7d7"/>
<text x="1085.7" y="412.0" text-anchor="middle" font-size="12" fill="#222" font-family="Microsoft YaHei, Arial">2</text>
<line x1="1141.4" y1="90" x2="1141.4" y2="390" stroke="#d7d7d7"/>
<text x="1141.4" y="412.0" text-anchor="middle" font-size="12" fill="#222" font-family="Microsoft YaHei, Arial">4</text>
<line x1="1197.1" y1="90" x2="1197.1" y2="390" stroke="#d7d7d7"/>
<text x="1197.1" y="412.0" text-anchor="middle" font-size="12" fill="#222" font-family="Microsoft YaHei, Arial">6</text>
<line x1="1252.9" y1="90" x2="1252.9" y2="390" stroke="#d7d7d7"/>
<text x="1252.9" y="412.0" text-anchor="middle" font-size="12" fill="#222" font-family="Microsoft YaHei, Arial">8</text>
<line x1="1308.6" y1="90" x2="1308.6" y2="390" stroke="#d7d7d7"/>
<text x="1308.6" y="412.0" text-anchor="middle" font-size="12" fill="#222" font-family="Microsoft YaHei, Arial">10</text>
<line x1="1364.3" y1="90" x2="1364.3" y2="390" stroke="#d7d7d7"/>
<text x="1364.3" y="412.0" text-anchor="middle" font-size="12" fill="#222" font-family="Microsoft YaHei, Arial">12</text>
<line x1="1420.0" y1="90" x2="1420.0" y2="390" stroke="#d7d7d7"/>
<text x="1420.0" y="412.0" text-anchor="middle" font-size="12" fill="#222" font-family="Microsoft YaHei, Arial">14</text>
<line x1="1030" y1="390.0" x2="1420" y2="390.0" stroke="#d7d7d7"/>
<text x="1022.0" y="394.0" text-anchor="end" font-size="12" fill="#222" font-family="Microsoft YaHei, Arial">0</text>
<line x1="1030" y1="247.1" x2="1420" y2="247.1" stroke="#d7d7d7"/>
<text x="1022.0" y="251.1" text-anchor="end" font-size="12" fill="#222" font-family="Microsoft YaHei, Arial">50</text>
<line x1="1030" y1="104.3" x2="1420" y2="104.3" stroke="#d7d7d7"/>
<text x="1022.0" y="108.3" text-anchor="end" font-size="12" fill="#222" font-family="Microsoft YaHei, Arial">100</text>
<line x1="1030" y1="-38.6" x2="1420" y2="-38.6" stroke="#d7d7d7"/>
<text x="1022.0" y="-34.6" text-anchor="end" font-size="12" fill="#222" font-family="Microsoft YaHei, Arial">150</text>
<polyline points="1030.0,390.0 1085.7,390.0 1141.4,104.3 1197.1,104.3 1252.9,104.3 1308.6,104.3 1364.3,104.3 1420.0,104.3" fill="none" stroke="#1f77b4" stroke-width="2.4"/>
<circle cx="1030.0" cy="390.0" r="4" fill="white" stroke="#1f77b4" stroke-width="2"/>
<circle cx="1085.7" cy="390.0" r="4" fill="white" stroke="#1f77b4" stroke-width="2"/>
<circle cx="1141.4" cy="104.3" r="4" fill="white" stroke="#1f77b4" stroke-width="2"/>
<circle cx="1197.1" cy="104.3" r="4" fill="white" stroke="#1f77b4" stroke-width="2"/>
<circle cx="1252.9" cy="104.3" r="4" fill="white" stroke="#1f77b4" stroke-width="2"/>
<circle cx="1308.6" cy="104.3" r="4" fill="white" stroke="#1f77b4" stroke-width="2"/>
<circle cx="1364.3" cy="104.3" r="4" fill="white" stroke="#1f77b4" stroke-width="2"/>
<circle cx="1420.0" cy="104.3" r="4" fill="white" stroke="#1f77b4" stroke-width="2"/>
<line x1="1302" y1="114" x2="1330" y2="114" stroke="#1f77b4" stroke-width="2.4"/>
<text x="1338.0" y="118.0" text-anchor="start" font-size="12" fill="#222" font-family="Microsoft YaHei, Arial">Clean</text>
<polyline points="1030.0,390.0 1085.7,390.0 1141.4,104.3 1197.1,104.3 1252.9,104.3 1308.6,104.3 1364.3,104.3 1420.0,104.3" fill="none" stroke="#2ca02c" stroke-width="2.4"/>
<circle cx="1030.0" cy="390.0" r="4" fill="white" stroke="#2ca02c" stroke-width="2"/>
<circle cx="1085.7" cy="390.0" r="4" fill="white" stroke="#2ca02c" stroke-width="2"/>
<circle cx="1141.4" cy="104.3" r="4" fill="white" stroke="#2ca02c" stroke-width="2"/>
<circle cx="1197.1" cy="104.3" r="4" fill="white" stroke="#2ca02c" stroke-width="2"/>
<circle cx="1252.9" cy="104.3" r="4" fill="white" stroke="#2ca02c" stroke-width="2"/>
<circle cx="1308.6" cy="104.3" r="4" fill="white" stroke="#2ca02c" stroke-width="2"/>
<circle cx="1364.3" cy="104.3" r="4" fill="white" stroke="#2ca02c" stroke-width="2"/>
<circle cx="1420.0" cy="104.3" r="4" fill="white" stroke="#2ca02c" stroke-width="2"/>
<line x1="1302" y1="136" x2="1330" y2="136" stroke="#2ca02c" stroke-width="2.4"/>
<text x="1338.0" y="140.0" text-anchor="start" font-size="12" fill="#222" font-family="Microsoft YaHei, Arial">Recovered</text>
</svg>